<svg xmlns="http://www.w3.org/2000/svg" viewBox="0 0 16 16" shape-rendering="crispEdges"><rect x="7" y="3.5" width="2" height="1" fill="#f2b966"/><rect x="7" y="4.5" width="2" height="1" fill="#e6e7ea"/><rect x="3" y="5.5" width="10" height="1" fill="#e6e7ea"/><rect x="2" y="6.5" width="12" height="1" fill="#e6e7ea"/><rect x="2" y="7.5" width="2" height="1" fill="#e6e7ea"/><rect x="4" y="7.5" width="8" height="1" fill="#080809"/><rect x="12" y="7.5" width="2" height="1" fill="#e6e7ea"/><rect x="1" y="8.5" width="2" height="1" fill="#e6e7ea"/><rect x="3" y="8.5" width="2" height="1" fill="#080809"/><rect x="5" y="8.5" width="2" height="1" fill="#f2b966"/><rect x="7" y="8.5" width="2" height="1" fill="#080809"/><rect x="9" y="8.5" width="2" height="1" fill="#f2b966"/><rect x="11" y="8.5" width="2" height="1" fill="#080809"/><rect x="13" y="8.5" width="2" height="1" fill="#e6e7ea"/><rect x="1" y="9.5" width="2" height="1" fill="#e6e7ea"/><rect x="3" y="9.5" width="2" height="1" fill="#080809"/><rect x="5" y="9.5" width="2" height="1" fill="#f2b966"/><rect x="7" y="9.5" width="2" height="1" fill="#080809"/><rect x="9" y="9.5" width="2" height="1" fill="#f2b966"/><rect x="11" y="9.5" width="2" height="1" fill="#080809"/><rect x="13" y="9.5" width="2" height="1" fill="#e6e7ea"/><rect x="2" y="10.5" width="2" height="1" fill="#e6e7ea"/><rect x="4" y="10.5" width="8" height="1" fill="#080809"/><rect x="12" y="10.5" width="2" height="1" fill="#e6e7ea"/><rect x="2" y="11.5" width="12" height="1" fill="#e6e7ea"/><rect x="3" y="12.5" width="10" height="1" fill="#9fa0a4"/></svg>