<svg xmlns="http://www.w3.org/2000/svg" viewBox="0 0 24 24" width="1024" height="1024" shape-rendering="crispEdges">
<defs><linearGradient id="bg" x1="0" y1="0" x2="0" y2="1"><stop offset="0" stop-color="#232427"/><stop offset="1" stop-color="#101012"/></linearGradient></defs>
<rect x="1.2" y="1.2" width="21.6" height="21.6" rx="5" fill="url(#bg)" shape-rendering="geometricPrecision"/>
<rect x="1.2" y="1.2" width="21.6" height="21.6" rx="5" fill="none" stroke="#ffffff" stroke-opacity="0.08" stroke-width="0.15" shape-rendering="geometricPrecision"/>
<ellipse cx="12" cy="18.6" rx="3.6" ry="0.55" fill="#000" opacity="0.55" shape-rendering="geometricPrecision"/>
<rect x="11" y="4.6" width="2" height="1" fill="#f2b966"/><rect x="11" y="5.6" width="2" height="1" fill="#e6e7ea"/><rect x="7" y="6.6" width="10" height="1" fill="#e6e7ea"/><rect x="6" y="7.6" width="12" height="1" fill="#e6e7ea"/><rect x="6" y="8.6" width="2" height="1" fill="#e6e7ea"/><rect x="8" y="8.6" width="8" height="1" fill="#080809"/><rect x="16" y="8.6" width="2" height="1" fill="#e6e7ea"/><rect x="5" y="9.6" width="2" height="1" fill="#e6e7ea"/><rect x="7" y="9.6" width="2" height="1" fill="#080809"/><rect x="9" y="9.6" width="2" height="1" fill="#f2b966"/><rect x="11" y="9.6" width="2" height="1" fill="#080809"/><rect x="13" y="9.6" width="2" height="1" fill="#f2b966"/><rect x="15" y="9.6" width="2" height="1" fill="#080809"/><rect x="17" y="9.6" width="2" height="1" fill="#e6e7ea"/><rect x="5" y="10.6" width="2" height="1" fill="#e6e7ea"/><rect x="7" y="10.6" width="2" height="1" fill="#080809"/><rect x="9" y="10.6" width="2" height="1" fill="#f2b966"/><rect x="11" y="10.6" width="2" height="1" fill="#080809"/><rect x="13" y="10.6" width="2" height="1" fill="#f2b966"/><rect x="15" y="10.6" width="2" height="1" fill="#080809"/><rect x="17" y="10.6" width="2" height="1" fill="#e6e7ea"/><rect x="6" y="11.6" width="2" height="1" fill="#e6e7ea"/><rect x="8" y="11.6" width="8" height="1" fill="#080809"/><rect x="16" y="11.6" width="2" height="1" fill="#e6e7ea"/><rect x="6" y="12.6" width="12" height="1" fill="#e6e7ea"/><rect x="7" y="13.6" width="10" height="1" fill="#9fa0a4"/><rect x="8" y="14.6" width="2" height="1" fill="#9fa0a4"/><rect x="14" y="14.6" width="2" height="1" fill="#9fa0a4"/><rect x="8" y="15.6" width="2" height="1" fill="#f2b966"/><rect x="14" y="15.6" width="2" height="1" fill="#f2b966"/>
</svg>